<?xml version="1.0" standalone="no"?>
<!DOCTYPE svg PUBLIC "-//W3C//DTD SVG 1.1//EN" "http://www.w3.org/Graphics/SVG/1.1/DTD/svg11.dtd">
<svg xmlns="http://www.w3.org/2000/svg">
<metadata>Generated by Fontastic.me</metadata>
<defs>
<font id="zapier" horiz-adv-x="512">
<font-face font-family="zapier" units-per-em="512" ascent="480" descent="-32"/>
<missing-glyph horiz-adv-x="512" />

<glyph glyph-name="error" unicode="&#99;" d="M437 437c100-100 100-262 0-362-100-100-262-100-362 0-100 100-100 262 0 362 100 100 262 100 362 0z m-181-129l-43 43c-14 14-38 14-52 0-14-15-14-38 0-52l43-43-43-43c-14-14-14-38 0-52 15-14 38-14 52 0l43 43 43-43c14-14 38-14 52 0 14 15 14 38 0 52l-43 43 43 43c14 14 14 38 0 52-15 14-38 14-52 0z"/>
<glyph glyph-name="filter" unicode="&#100;" d="M1 507c-2-3-1-6 1-9l191-241 0-164c0-3 1-6 3-7l107-79c3-1 6-2 9 0 3 1 5 4 5 7l0 243 193 241c2 2 3 6 1 9-1 3-4 5-7 5l-495 0c-4 0-7-2-8-5z"/>
<glyph glyph-name="list" unicode="&#101;" d="M21 424c0 27 22 49 49 49l391 0c27 0 48-22 48-49 0-27-22-49-48-49l-391 0c-27 0-49 22-49 49z m0-176c0 27 22 48 49 48l391 0c27 0 48-21 48-48 0-27-22-49-48-49l-391 0c-27 0-49 21-49 49z m0-177c0 27 22 49 49 49l286 0c26 0 48-21 48-49 0-26-21-48-48-48l-286 0c-27 0-49 21-49 48z"/>
<glyph glyph-name="lock" unicode="&#102;" d="M387 274l0 107c0 72-59 131-131 131-72 0-131-59-131-131l0-107-33 0c-18 0-33-15-33-33l0-188c0-19 15-33 33-33l328 0c18 0 33 14 33 33l0 188c0 18-15 33-33 33z m-197 0l0 107c0 36 30 65 66 65 36 0 66-29 66-65l0-107z"/>
<glyph glyph-name="plus" unicode="&#103;" d="M318 318l0 103c0 35-28 63-62 63-35 0-62-28-62-63l0-103-103 0c-35 0-63-28-63-62 0-35 28-62 63-62l103 0 0-103c0-35 28-63 62-63 35 0 62 28 62 63l0 103 103 0c35 0 63 28 63 62 0 35-28 62-63 62z"/>
<glyph glyph-name="delete" unicode="&#97;" d="M168 250l-124-128c-26-27-25-70 2-95 26-26 69-25 95 1l124 129 129-124c27-26 69-25 95 1 26 27 25 70-2 95l-129 125 125 129c25 26 25 69-2 95-26 25-69 25-95-2l-124-129-129 124c-27 26-69 25-95-1-26-27-25-70 2-95z"/>
<glyph glyph-name="arrow-down" unicode="&#107;" d="M256 205l184 184c16 16 41 16 57 0 16-16 16-41 0-57l-209-209c-9-9-21-13-32-12-11-1-23 3-32 12l-209 209c-16 16-16 41 0 57 16 16 41 16 57 0z"/>
<glyph glyph-name="arrow-up" unicode="&#108;" d="M256 307l184-184c16-16 41-16 57 0 16 16 16 41 0 57l-209 209c-9 9-21 13-32 12-11 1-23-3-32-12l-209-209c-16-16-16-41 0-57 16-16 41-16 57 0z"/>
<glyph glyph-name="test" unicode="&#112;" d="M193 256l34 70 4 15 0 0 0 1 0 0 0 0 0 93 68 0 0-93 0 0 0 0 0-1 0 0 4-15 34-70z m0 0c42 0 102 0 144 0z m149 179l5 0c13 0 22 10 22 22 0 11-10 21-22 21l-165 0c-12 0-22-10-22-21 0-12 10-22 22-22l7 0 0-91-1 0-46-97-78-150c-22-42-1-76 46-76l303 0c47 0 68 35 48 77 0 0-50 102-69 142l-50 104 0 0z"/>
<glyph glyph-name="clock" unicode="&#113;" d="M512 256c0-141-115-256-256-256-141 0-256 115-256 256 0 141 115 256 256 256 141 0 256-115 256-256z m0 0l-255-40 107 0c16 0 28 13 28 29 0 15-12 28-28 28l-94 0-46 114c-6 14-22 21-37 15-14-6-21-22-15-37l50-125c2-9 8-17 16-21 6-3 12-4 19-3z m0 0"/>
<glyph glyph-name="help" unicode="&#114;" d="M380 142l75 0c31 0 57 26 57 57l0 227c0 32-25 58-57 58l-398 0c-32 0-57-26-57-58l0-227c0-31 25-57 57-57l208 0 0-91c0-16 8-20 19-8z m0 0"/>
<glyph glyph-name="search" unicode="&#115;" d="M435 293c0 110-89 199-199 199-110 0-199-89-199-199 0-110 89-199 199-199 110 0 199 89 199 199z m-199-114c-63 0-114 51-114 114 0 63 51 114 114 114 63 0 114-51 114-114 0-63-51-114-114-114z m142-115c14-15 42-44 42-44 16-16 43-17 60-1 17 17 18 44 1 61l-95 99c-16 17-43 17-60 1-17-17-18-44-1-61 0 0 35-37 53-55z"/>
<glyph glyph-name="check" unicode="&#117;" d="M498 259c0 137-110 249-246 249-135 0-245-112-245-249 0-138 110-250 245-250 136 0 246 112 246 250z m-272-37l119 120c14 13 35 13 48 0 13-13 13-34 0-48l-131-131c-2-2-4-4-7-5-2-3-3-5-6-7-13-14-34-13-48 0l-71 71c-13 14-13 35 0 48 13 13 35 13 48 0z"/>
<glyph glyph-name="bell" unicode="&#119;" d="M480 128l0-32-448 0 0 32 24 18c24 25 26 82 38 142 24 120 130 160 130 160 0 17 15 32 32 32 18 0 32-15 32-32 0 0 109-40 133-160 12-60 14-117 38-142z m-224-128c36 0 64 28 64 64l-128 0c0-36 29-64 64-64z"/>
<glyph glyph-name="edit" unicode="&#109;" d="M357 497c12 13 32 15 46 3l50-42c14-11 15-32 4-45l-286-341-100 83z m-300-358l100-84c0 0-103-55-120-41-17 14 20 125 20 125z"/>
<glyph glyph-name="trash" unicode="&#111;" d="M388 341l-264 0c-7 0-12-5-12-12l0-256c0-6 5-12 12-12l264 0c7 0 12 6 12 12l0 256c0 7-5 12-12 12z m17 82l-101 0 0 16c0 6-5 12-12 12l-72 0c-7 0-12-6-12-12l0-16-100 0c-7 0-13-5-13-12l0-35c0-7 6-13 13-13l297 0c6 0 12 6 12 13l0 35c0 7-6 12-12 12z"/>
<glyph glyph-name="folder" unicode="&#116;" d="M0 441c0 16 13 28 28 28l160 0c16 0 34-12 39-26l19-46c5-14-3-26-18-26l-200 0c-15 0-28 13-28 28z m28-31l456 0c15 0 28-12 28-28l0-298c0-15-13-28-28-28l-456 0c-15 0-28 13-28 28l0 298c0 16 13 28 28 28z"/>
<glyph glyph-name="zap-arrow" unicode="&#118;" d="M71 57c0-35 39-55 67-35l285 199c24 17 24 53 0 70l-285 199c-28 20-67 0-67-35z"/>
<glyph glyph-name="more" unicode="&#120;" d="M128 256c0-35-29-64-64-64-35 0-64 29-64 64 0 35 29 64 64 64 35 0 64-29 64-64z m192 0c0-35-29-64-64-64-35 0-64 29-64 64 0 35 29 64 64 64 35 0 64-29 64-64z m192 0c0-35-29-64-64-64-35 0-64 29-64 64 0 35 29 64 64 64 35 0 64-29 64-64z"/>
<glyph glyph-name="arrow-left" unicode="&#121;" d="M208 251l174 174c15 15 15 40 0 55-15 15-39 14-54 0l-198-199c-9-8-12-19-11-30-1-11 2-22 11-30l198-198c15-15 39-16 54 0 15 15 15 39 0 54z"/>
<glyph glyph-name="arrow-right" unicode="&#122;" d="M304 251l-174-174c-15-15-15-39 0-54 15-16 39-15 54 0l198 198c9 8 12 19 11 30 1 11-2 22-11 30l-198 199c-15 14-39 15-54 0-15-15-15-40 0-55z"/>
<glyph glyph-name="bolt" unicode="&#98;" d="M283 466l-161-191c-15-18-9-55 15-56l78-4-68-153c-29-65 7-75 55-22l180 199c16 18 9 54-14 55l-81 5 52 147c19 56-17 65-56 20z"/>
<glyph glyph-name="cog-gear" unicode="&#65;" d="M329 256c0 20-7 37-21 52-15 14-32 21-52 21-20 0-37-7-52-21-14-15-21-32-21-52 0-20 7-37 21-52 15-14 32-21 52-21 20 0 37 7 52 21 14 15 21 32 21 52z m146 31l0-63c0-3 0-5-2-7-1-2-3-3-6-4l-52-8c-4-10-8-19-12-26 7-9 17-22 31-39 2-2 3-5 3-7 0-3-1-5-3-7-5-7-14-17-28-31-14-13-23-20-27-20-2 0-5 1-7 3l-40 31c-8-5-17-8-26-11-3-26-6-44-8-53-1-6-5-8-10-8l-64 0c-2 0-5 0-7 2-2 2-3 4-3 6l-8 53c-9 3-18 6-26 10l-40-30c-2-2-4-3-7-3-3 0-5 1-7 3-24 22-40 38-47 48-2 2-2 4-2 7 0 2 0 4 2 6 3 4 8 11 14 19 7 9 12 16 16 21-5 9-9 19-12 28l-52 8c-3 0-5 1-6 3-2 2-2 4-2 7l0 63c0 3 0 5 2 7 1 2 3 3 5 4l53 8c3 8 7 17 12 26-8 11-18 24-31 39-2 3-3 5-3 7 0 2 1 4 3 7 5 7 14 17 28 30 14 14 23 21 27 21 2 0 5-1 7-3l40-31c8 5 17 8 26 11 3 26 6 44 8 53 1 6 5 8 10 8l64 0c2 0 5 0 7-2 2-2 3-4 3-6l8-53c9-3 18-6 26-10l40 30c2 2 4 3 7 3 3 0 5-1 7-3 25-23 41-39 47-49 2-1 2-3 2-6 0-2 0-4-2-6-3-4-8-11-14-19-7-9-12-16-16-21 5-9 9-18 12-28l52-8c3 0 5-1 6-3 2-2 2-4 2-7z"/>
<glyph glyph-name="support" unicode="&#67;" d="M256 0c-142 0-256 114-256 256 0 142 114 256 256 256 142 0 256-114 256-256 0-142-114-256-256-256z m0 470c-117 0-214-97-214-214 0-117 97-214 214-214 117 0 214 97 214 214 0 117-97 214-214 214z m0-347c-72 0-133 61-133 133 0 72 61 133 133 133 72 0 133-61 133-133 0-72-61-133-133-133z m0 226c-51 0-93-42-93-93 0-51 42-93 93-93 51 0 93 42 93 93 0 51-42 93-93 93z m-217 6l111-51-18-36-112 51z m96-120l18-36-111-51-19 36z m349 120l18-36-111-51-18 36z m-96-120l111-51-18-36-111 51z m-192-84l36-18-51-112-36 18z m120 0l51-112-36-18-51 112z m-132 328l51-112-36-18-51 112z m144 12l36-18-51-112-36 18z"/>
<glyph glyph-name="heart" unicode="&#68;" d="M512 336c0-42-22-85-65-129l-178-171c-4-3-8-5-13-5-5 0-9 2-13 5l-178 172c-2 2-4 4-8 7-3 4-8 10-16 19-7 9-13 18-19 28-6 10-11 21-15 35-5 13-7 26-7 39 0 42 12 75 36 98 24 24 58 36 101 36 11 0 23-2 36-6 12-5 23-10 34-17 11-7 20-13 27-20 8-6 15-12 22-19 7 7 14 13 22 19 7 7 16 13 27 20 11 7 22 12 34 17 13 4 25 6 36 6 43 0 77-12 101-36 24-23 36-56 36-98z"/>
<glyph glyph-name="download" unicode="&#66;" d="M109 275c0 1-1 2-1 5-3 11-3 25 0 41 8 41 49 84 97 87 42 3 72-10 94-34 8-9 14-19 19-29 3-7 5-13 5-13 0-10 8-19 19-19 10 0 19 9 19 19 0 15-14 45-34 67-29 33-71 51-124 47-67-5-121-61-132-118-4-21-4-40 0-56 1-5 2-9 3-11 4-10 15-15 25-11 10 4 14 15 10 25z m-7-164c-24 0-50 17-55 50-6 39 17 75 49 88 10 4 14 15 10 24-3 10-14 15-24 11-48-19-81-71-73-129 8-54 52-82 93-82 10 0 19 9 19 19 0 11-9 19-19 19z m310-38c1 0 1 0 2 0 23 0 40 3 62 16 20 12 35 42 35 64 0 27-8 48-31 67-11 9-24 15-38 18-4 1-9 2-13 3-1 0-3 0-4 0-1 0-1 0-1 0-1 0-1 0-1 0 0 0 0 0 0 0 0 0 0 0 0 0 0 0 0 0 0 0l0 0c-10 0-19-8-19-19 0-10 9-19 19-19l0 0c0 0 0 0 0 0 0 0 0 0 0 0 0 0 0 0 0 0 0 0 0 0 0 0 0 0 0 0 0 0 1 0 1 0 2 0 3 0 5-1 8-1 8-3 16-6 23-12 13-11 17-20 17-37 0-9-9-27-16-31-15-9-26-11-42-11-2 0-2 0-3 0-11 0-19-8-19-19 0-10 8-19 19-19z m26 139c2 3 4 8 7 14 4 10 6 22 6 34 0 31-20 67-45 81-24 13-42 15-67 10-10-3-17-13-14-23 2-10 12-17 22-14 16 3 25 2 41-6 12-7 25-31 25-48 0-7-1-14-4-21-1-3-2-5-3-6-5-9-3-21 6-26 9-6 20-4 26 5z m-337-139l322 0c10 0 19 9 19 19 0 11-9 19-19 19l-322 0c-10 0-18-8-18-19 0-10 8-19 18-19z m152 143l0 90c0 9-7 15-16 15-8 0-15-6-15-15l0-90-26 29c-6 7-16 7-22 2-6-6-7-16-1-22l51-57c3-4 8-5 13-5 5 0 10 1 14 5l51 57c5 6 5 16-1 22-7 5-16 5-22-2z"/>
<glyph glyph-name="alert" unicode="&#71;" d="M246 512c-136 0-246-112-246-249 0-138 110-250 246-250 135 0 246 112 246 250 0 137-111 249-246 249z m0-421c-21 0-38 17-38 39 0 21 17 38 38 38 21 0 38-17 38-38 0-22-17-39-38-39z m38 145c0-21-17-39-38-39-21 0-38 18-38 39l0 160c0 21 17 38 38 38 21 0 38-17 38-38z"/>
<glyph glyph-name="camera" unicode="&#72;" d="M474 59l-434 0c-18 0-32 14-32 31l0 280c0 18 15 31 32 31l97 0 39 48c7 9 12 14 29 14l104 0c16 0 23-7 30-14l38-48 97 0c18 0 32-14 32-31l0-280c0-18-15-31-32-31z m-217 284c-58 0-107-48-107-107 0-58 49-106 107-106 59 0 107 48 107 106 0 59-48 107-107 107z"/>
<glyph glyph-name="add" unicode="&#106;" d="M512 256c0-141-115-256-256-256-141 0-256 115-256 256 0 141 115 256 256 256 141 0 256-115 256-256z m-219 37l0 60c0 21-17 37-37 37-20 0-37-16-37-37l0-60-60 0c-21 0-37-17-37-37 0-20 16-37 37-37l60 0 0-60c0-21 17-37 37-37 20 0 37 16 37 37l0 60 60 0c21 0 37 17 37 37 0 20-16 37-37 37z"/>
<glyph glyph-name="insert-field" unicode="&#73;" d="M38 460l364 0c16 0 29-13 29-28 0-16-13-29-29-29l-364 0c-16 0-29 13-29 29 0 15 13 28 29 28z m0-117l185 0c15 0 28-13 28-28 0-16-13-29-28-29l-185 0c-16 0-29 13-29 29 0 15 13 28 29 28z m0-117l125 0c15 0 28-13 28-28 0-16-13-29-28-29l-125 0c-16 0-29 13-29 29 0 15 13 28 29 28z m0-114l170 0c16 0 29-12 29-28 0-16-13-28-29-28l-170 0c-16 0-29 12-29 28 0 16 13 28 29 28z m463 81c0-66-54-119-120-119-66 0-119 53-119 119 0 66 53 120 119 120 66 0 120-54 120-120z m-103 14l0 29c0 9-7 17-17 17-9 0-17-8-17-17l0-29-33 0c-6 0-12-8-12-17 0-9 5-17 12-17l33 0 0-29c0-9 8-16 17-16 9 0 17 7 17 17l0 28 33 0c7 0 13 8 13 17 0 9-6 17-13 17z"/>
<glyph glyph-name="check-alt" unicode="&#74;" d="M407 431c24 24 63 24 87 0 24-23 24-62 0-87 0 0-256-255-260-259-24-24-63-24-87 0l-129 129c-24 25-24 63 0 87 24 24 63 24 87-1l86-86z"/>
<glyph glyph-name="info" unicode="&#69;" d="M256 0c141 0 256 115 256 256 0 141-115 256-256 256-141 0-256-115-256-256 0-141 115-256 256-256z m-43 262c0 23 19 42 43 42 24 0 43-19 43-42l0-114c0-24-19-43-43-43-24 0-43 19-43 43z m0 122c0 24 19 43 43 43 24 0 43-19 43-43 0-24-19-43-43-43-24 0-43 19-43 43z"/>
<glyph glyph-name="zapier-logo" unicode="&#105;" d="M318 256c0-19-4-36-10-52-16-7-34-10-52-10l0 0c-19 0-36 3-52 9-7 17-10 34-10 53l0 0c0 18 3 36 10 52 16 6 33 10 52 10l0 0c18 0 36-4 52-10 6-16 10-34 10-52z m182 41l-145 0 102 102c-8 11-17 22-26 32l0 0c-10 9-21 18-32 26l-102-102 0 145c-13 2-27 3-41 3l0 0c-14 0-28-1-41-3l0-145-102 102c-12-8-22-17-32-26l0 0c-10-10-19-21-27-32l102-102-144 0c0 0-3-27-3-41l0 0c0-14 1-28 3-41l144 0-102-102c16-23 36-43 59-59l102 102 0-144c13-2 27-3 41-3l0 0c14 0 28 1 41 3l0 144 102-102c11 8 22 17 32 27l0 0c9 10 18 20 26 32l-102 102 145 0c2 13 3 27 3 41l0 0c0 14-1 28-3 41z"/>
<glyph glyph-name="indeterminate" unicode="&#75;" d="M71 320l370 0c39 0 71-28 71-64 0-35-32-64-71-64l-370 0c-39 0-71 28-71 64 0 35 32 64 71 64z"/>
<glyph glyph-name="code" unicode="&#77;" d="M218 407c11 11 11 29 0 40-11 11-29 11-40 0l-170-170c-11-11-11-29 0-40l171-172c11-11 29-11 40 0 11 11 11 29 0 40l-150 152z m75-302c-11-11-11-29 0-40 11-11 29-11 40 0l171 172c11 11 11 29 0 40l-170 170c-11 11-29 11-40 0-11-11-11-29 0-40l149-150z"/>
<glyph glyph-name="link" unicode="&#76;" d="M472 472c-27 27-62 40-97 40-34 0-69-13-96-40l-56-56c0 0-1-1-1-1-1-1-1-2-1-3 0-2 2-4 4-4l0 0c1 0 1 0 1 0 4 1 8 1 12 1 21 0 41-4 59-11 1 0 1-1 1-1 0 0 1 0 1 0 1 0 2 1 2 1l2 1 24 25c13 13 30 20 48 20 19 0 36-7 49-20 26-27 26-70 0-97l-102-102c-13-13-30-20-48-20-19 0-36 7-49 20-7 7-12 15-15 24l0 0c0 0 0 1 0 1l0 0c-1 2-2 3-4 3-1 0-2-1-2-1-1 0-1-1-2-1l-43-43c0-1-1-1-1-2 0 0-1-1-1-2 0 0 0-1 1-1 0-1 0-2 1-2 5-9 11-16 18-24 27-27 62-40 97-40 35 0 70 13 96 40l102 102c53 53 53 140 0 193m-185-368l0 0c-1 0-1 0-2 0l0 0c-3-1-7-1-11-1-21 0-40 4-59 11 0 0-1 0-1 1-1 0-1 0-1 0-1 0-2-1-2-1-1 0-1-1-2-1l-24-25c-13-13-30-20-48-20-19 0-36 7-49 20-26 27-26 70 0 97l102 102c13 13 30 20 48 20 19 0 36-7 49-20 7-8 12-16 15-25 1-2 2-3 4-3 1 0 2 1 2 1 1 0 1 1 1 1l44 43c0 1 0 1 0 1 1 1 2 2 2 3 0 0-1 1-1 1 0 1 0 2-1 2-5 8-11 17-18 24-27 27-62 40-97 40-35 0-70-13-96-40l-102-102c-53-53-53-140 0-193 27-27 62-40 97-40 34 0 69 13 96 40l56 56c1 0 1 1 1 1 1 1 1 2 1 3 0 2-2 4-4 4"/>
<glyph glyph-name="power" unicode="&#110;" d="M256 0c-141 0-256 113-256 251 0 72 31 140 86 188 15 13 38 12 52-3 13-15 12-38-3-51-39-34-62-83-62-134 0-99 82-179 183-179 101 0 183 80 183 179 0 51-23 100-61 134-16 13-17 36-4 51 14 15 37 16 52 3 55-48 86-116 86-188 0-138-115-251-256-251z m40 279l0 194c0 22-18 39-41 39-22 0-41-17-41-39l0-194c0-22 19-39 41-39 23 0 41 17 41 39z"/>
<glyph glyph-name="article" unicode="&#78;" d="M160 128l32 0c18 0 32 14 32 32 0 18-14 32-32 32l-32 0c-18 0-32-14-32-32 0-18 14-32 32-32z m0 96l32 0c18 0 32 14 32 32 0 18-14 32-32 32l-32 0c-18 0-32-14-32-32 0-18 14-32 32-32z m0 96l192 0c18 0 32 14 32 32 0 18-14 32-32 32l-192 0c-18 0-32-14-32-32 0-18 14-32 32-32z m256-64l-128 0c-18 0-32-14-32-32l0-160-160 0 0 384 320 0z m-96-136l0 72 60 0z m160 344c0 26-22 48-48 48l-352 0c-26 0-48-22-48-48l0-416c0-26 22-48 48-48l208 0c10 0 18 5 24 12l1-1 160 192-1 1c5 5 8 12 8 20z"/>
<glyph glyph-name="reload" unicode="&#79;" d="M499 326l-105 81c-7 5-17 4-23-3l-80-106c-6-7-6-19 3-22 3-1 16 1 16 1 13 1 33 4 55 6l0-2c8-60-20-123-82-153-46-22-103-18-145 10-80 54-87 163-23 228 43 43 108 54 163 30 8-3 17-1 21 7l20 34c4 8 1 19-7 22-104 49-234 10-290-103-34-69-28-153 15-216 44-65 113-98 182-98 56 0 112 22 155 64 49 50 70 118 61 184l0 2c28 4 50 7 53 7 11 1 14 5 14 5 5 7 4 17-3 22"/>
<glyph glyph-name="custom-value" unicode="&#80;" d="M272 480c9 0 16-7 16-16l0-32c0-9-7-16-16-16l-48 0 0-32 272 0c9 0 16-7 16-16l0-224c0-9-7-16-16-16l-272 0 0-32 48 0c9 0 16-7 16-16l0-32c0-9-7-16-16-16l-160 0c-9 0-16 7-16 16l0 32c0 9 7 16 16 16l48 0 0 320-48 0c-9 0-16 7-16 16l0 32c0 9 7 16 16 16z m-48-288l224 0 0 128-224 0z m64 96c18 0 32-14 32-32 0-18-14-32-32-32-18 0-32 14-32 32 0 18 14 32 32 32z m96 0c18 0 32-14 32-32 0-18-14-32-32-32-18 0-32 14-32 32 0 18 14 32 32 32z m-288 96l0-64-32 0 0-128 32 0 0-64-80 0c-9 0-16 7-16 16l0 224c0 9 7 16 16 16z"/>
<glyph glyph-name="clear" unicode="&#81;" d="M373 202c10-9 10-24 0-33-4-5-10-7-16-7-6 0-12 2-17 7l-54 54-54-54c-4-5-10-7-16-7-6 0-13 2-17 7-9 9-9 24 0 33l54 54-54 54c-9 9-9 24 0 33 9 9 24 9 33 0l54-54 54 54c9 9 24 9 33 0 10-9 10-24 0-33l-54-54z m99 246l-345 0c-14 0-26-7-33-18l-90-160c-5-9-5-19 0-28l90-160c7-11 19-18 33-18l345 0c20 0 36 14 36 32l0 320c0 18-16 32-36 32z"/>
<glyph glyph-name="flip" unicode="&#82;" d="M501 403c7-6 11-14 11-23 0-8-3-15-8-20-1-1-1-1-2-2l-114-103c-12-11-30-10-41 2-11 12-10 30 2 41l59 53-209 0c-16 0-28 13-28 29 0 16 13 29 28 29l209 0-59 53c-12 10-13 29-2 40 11 12 29 13 41 3z m-490-274c-7 6-11 14-11 23 0 8 3 15 8 20 0 1 1 1 1 2l115 103c12 11 30 10 41-2 10-12 9-30-2-41l-60-53 209 0c16 0 29-13 29-29 0-16-13-29-29-29l-209 0 60-53c11-10 12-29 2-40-11-12-29-13-41-3z"/>
<glyph glyph-name="user" unicode="&#104;" d="M0 116c0 64 54 117 120 117l240 0c66 0 120-53 120-117l0-116-480 0z m358 281c0 64-51 115-116 115-63 0-114-51-114-115 0-62 51-115 114-115 65 0 116 53 116 115z"/>
<glyph glyph-name="team" unicode="&#70;" d="M431 240c44 0 80-34 81-77l0-78-161 0 0 78c0 43-9 65-39 77z m-431-77c0 43 36 77 80 77l160 0c44 0 80-34 80-77l0-78-320 0z m239 187c0 43-35 77-77 77-42 0-77-34-77-77 0-42 35-77 77-77 42 0 77 35 77 77z m199 0c0 43-34 77-77 77-42 0-77-34-77-77 0-42 35-77 77-77 43 0 77 35 77 77z"/>
</font>
</defs>
</svg>
