<svg width="61" height="40" viewBox="0 0 61 40" xmlns="http://www.w3.org/2000/svg"><title>Group</title><g fill="none" fill-rule="evenodd"><path d="M60.75 35c0 2.75-2.25 5-5 5h-50c-2.75 0-5-2.25-5-5V5c0-2.75 2.25-5 5-5h50c2.75 0 5 2.25 5 5v30z" fill="#A2CFB5"/><path fill="#7AAC8F" d="M2 7h58v7H2z"/><path d="M59.28 1.47A4.985 4.985 0 0 1 60.75 5v30a4.98 4.98 0 0 1-1.47 3.53A4.987 4.987 0 0 1 55.75 40h-50a4.98 4.98 0 0 1-3.53-1.47L59.28 1.47z" fill="#FFF" opacity=".06"/><path d="M55.75 1c2.206 0 4 1.794 4 4v30c0 2.206-1.794 4-4 4h-50c-2.206 0-4-1.794-4-4V5c0-2.206 1.794-4 4-4h50zm0-1h-50C3 0 .75 2.25.75 5v30c0 2.75 2.25 5 5 5h50c2.75 0 5-2.25 5-5V5c0-2.75-2.25-5-5-5z" fill="#F8F8F9"/></g></svg>